# xmcd
#
# Track frame offsets:
#	150
#	17135
#	30562
#	51848
#	67987
#	93332
#	112526
#	129195
#	156150
#	174802
#
# Disc length: 2597 seconds
#
# Revision: 0
# Processed by: cddbd v1.5.2PL0 Copyright (c) Steve Scherf et al.
# Submitted via: audiograbber 1.83.01
#
DISCID=690a230a
DTITLE=Linda Bracamonte - I Know The Difference Between A Sad Song And The Blue
DTITLE=s
DYEAR=2008
DGENRE=Blues
TTITLE0=Saved My Life
TTITLE1=The Ride
TTITLE2=Checkin' Out
TTITLE3=I'm All Right
TTITLE4=Coming Home
TTITLE5=Callin' All The Shots
TTITLE6=Do You Want To Funk
TTITLE7=I Know The Difference (Between A Sad Song And The Blues)
TTITLE8=I'm On It
TTITLE9=You Don't Know What It's Like (On The Back Of My Bike)
EXTD=
EXTT0=
EXTT1=
EXTT2=
EXTT3=
EXTT4=
EXTT5=
EXTT6=
EXTT7=
EXTT8=
EXTT9=
PLAYORDER=
